<svg width="294" height="157" viewBox="0 0 294 157" fill="none" xmlns="http://www.w3.org/2000/svg">
    <g>
        <path fill-rule="evenodd" clip-rule="evenodd"
            d="M69.3542 90.5938C99.4271 53.776 139.422 30.651 203.75 41.0781L207.76 26.1823C204.563 19.2083 204.537 12.7656 207.76 6.85938L221.802 14.1094L244.667 11.6927L256.302 0.015625C258.672 5.41667 259.281 10.9948 256.302 16.9219C266.813 22.1406 267.604 33.1094 266.333 45.3073C276.995 56.2917 280.422 69.8125 280.375 84.5573C295.912 101.964 298 117.203 280.375 129.24L263.125 155C255.5 156.307 249.885 152.182 249.885 147.755L259.51 117.563L213.781 116.76L208.162 155C198.854 157.984 192.068 155.906 188.104 148.161C196.734 142.052 193.245 128.786 183.693 111.932H117.5L114.287 124.813C106.688 125.99 99.4428 130.042 91.4219 124.813C88.3438 121.729 88.8751 113.807 82.1928 115.552L58.1198 114.344L32.0469 137.286C25.5834 136.984 18.6667 135.703 19.2084 123.203L44.8803 105.49C6.65109 102.297 -9.99995 64.599 9.17713 65.2344C6.77609 75.5625 19.1615 82.9063 27.4167 87.3646C37.349 92.7344 47.7032 91.651 69.3542 90.5938Z"
            fill="currentColor" />
    </g>
</svg>